
        <svg xmlns="http://www.w3.org/2000/svg" xmlns:xlink="http://www.w3.org/1999/xlink" version="1.1" width="2773.1092436974786" 
        height="3252.1008403361343" viewBox="0 0 2773.1092436974786 3252.1008403361343">
			
			<g transform="scale(12.605042016806722) translate(10, 10)">
				<defs id="SvgjsDefs4978"></defs><g id="SvgjsG4979" featureKey="rootContainer" transform="matrix(1,0,0,1,0,19)" fill="#f2001c"><rect y="0" height="1" width="1" opacity="0"></rect><rect y="214" width="200" height="5"></rect></g><g id="SvgjsG4980" featureKey="symbolFeature-0" transform="matrix(1.6334949775812075,0,0,1.6334949775812075,18.806350583387108,-27.36661164669423)" fill="#f2001c"><defs xmlns="http://www.w3.org/2000/svg"><g id="a"><path fill="#f2001c" stroke="none" d=" M 29.1 69.8 Q 28.85 70.15 28.85 70.55 28.85 70.9 29.1 71.25 L 29.1 71.3 Q 29.45 71.85 30.1 71.85 L 67.35 71.85 Q 68.15 71.7 68.45 71.25 68.6 71 68.6 70.6 68.6 69.55 67.55 69.35 L 30.1 69.35 Q 29.45 69.25 29.1 69.8 M 75.15 38.7 L 59.65 48.9 49.4 28.1 49.2 28 Q 48.35 27.5 47.75 28.1 L 37.5 48.9 23.15 38.8 Q 22.55 38.55 21.95 39.45 21.5 40.1 21.55 40.5 L 21.55 40.7 29.25 63.8 Q 29.6 65 29.55 65.05 29.55 65.1 29.75 65.25 29.95 65.4 30.1 66 L 67.75 66 Q 68.4 65.9 68.8 65.45 69.1 65.1 69.1 64.75 69.45 64.7 69.6 63.35 L 77.65 40.7 Q 77.7 40.25 77.25 39.6 76.85 39.05 76.55 38.95 76.35 38.6 75.85 38.6 75.35 38.7 75.15 38.7 M 38.55 51.75 Q 38.75 51.55 39.25 50.65 L 48.9 31.2 58.05 51.25 Q 58.2 51.95 59.5 51.5 59.85 51.4 60.05 51.2 L 60.25 51.1 74.5 41.95 66.5 63.4 31.9 63.3 24.85 42.85 37.05 51.5 Q 37.3 51.8 37.7 51.95 38.15 52 38.05 52.25 37.85 52.65 38.55 51.75 Z"></path></g></defs><g xmlns="http://www.w3.org/2000/svg" transform="matrix( 1, 0, 0, 1, 0,0) "><use xmlns:xlink="http://www.w3.org/1999/xlink" xlink:href="#a"></use></g></g><g id="SvgjsG4981" featureKey="nameFeature-0" transform="matrix(1.1139246100324773,0,0,1.1139246100324773,-2.1543302127999517,96.61988274522518)" fill="#ffffff"><path d="M12.852 40.37109 c-5.7617 0 -9.9805 -2.7539 -10.918 -7.4414 l3.9648 -0.9375 c0.625 3.2227 3.418 5.0781 7.0898 5.0781 c2.9492 0 5.7813 -1.2109 5.7227 -4.5313 c-0.039063 -3.2813 -3.5938 -4.1797 -7.3633 -5.2148 c-4.2773 -1.1719 -8.5547 -2.5195 -8.5547 -7.5977 c0 -5.1367 4.2383 -7.7148 9.2578 -7.7148 c4.8633 0 9.2383 2.0508 10.273 6.7969 l-3.7695 0.95703 c-0.68359 -3.0664 -3.2422 -4.4336 -6.3281 -4.4336 c-2.7734 0 -5.5273 1.2109 -5.5273 4.3555 c0 2.8516 3.0859 3.6914 6.582 4.6289 c4.3945 1.1914 9.4336 2.5586 9.4336 8.1055 c0 5.5859 -4.6875 7.9492 -9.8633 7.9492 z M49.5847109375 12.383 l0 3.4961 l-6.9922 0 l0 24.121 l-3.8477 0 l0 -24.121 l-7.0117 0 l0 -3.4961 l17.852 0 z M75.518015625 40 l-7.1484 -12.422 l-3.8672 0 l0 12.422 l-3.8867 0 l0 -27.617 l9.2969 0 c5.7813 0 8.418 3.5352 8.418 7.8711 c0 3.8477 -2.2656 6.5234 -6.0547 7.168 l7.793 12.578 l-4.5508 0 z M64.501915625 15.742 l0 8.8672 l4.8828 0 c3.5938 0 5.2148 -1.7969 5.2148 -4.4141 c0 -2.5781 -1.6211 -4.4531 -5.2148 -4.4531 l-4.8828 0 z M106.5285703125 15.879000000000001 l-11.055 0 l0 8.5938 l9.7461 0 l0 3.4766 l-9.7461 0 l0 8.5352 l11.055 0 l0 3.5156 l-15.02 0 l0 -27.617 l15.02 0 l0 3.4961 z M136.7575 40 l-2.3047 -6.4453 l-12.344 0 l-2.3047 6.4453 l-4.043 0 l10.176 -27.617 l4.6875 0 l10.176 27.617 l-4.043 0 z M123.3203 30.1562 l9.9219 0 l-4.9609 -13.926 z M181.4793671875 40 l-3.8086 0 l-1.8164 -22.461 l-8.5352 22.461 l-2.3633 0 l-8.4766 -22.383 l-1.8555 22.383 l-3.8281 0 l2.1289 -27.617 l5.2539 0 l7.9492 20.879 l7.9883 -20.879 l5.2539 0 z"></path></g><g id="SvgjsG4982" featureKey="nameFeature-1" transform="matrix(1.7948361215151378,0,0,1.7948361215151378,-7.5365175178371695,130.44206473252189)" fill="#ffffff"><path d="M20.156 40 l-9.6875 -12.598 l-2.3828 0 l0 12.598 l-3.8867 0 l0 -27.617 l3.8867 0 l0 11.543 l2.3438 0 l9.4141 -11.543 l4.7656 0 l-10.82 13.164 l11.348 14.453 l-4.9805 0 z M36.0888484375 40 l0 -27.617 l3.8867 0 l0 27.617 l-3.8867 0 z M72.783703125 12.383 l3.8672 0 l0 27.617 l-4.1992 0 l-14.434 -21.914 l0 21.914 l-3.8477 0 l0 -27.617 l4.1602 0 l14.453 21.816 l0 -21.816 z M102.5829765625 40.37109 c-7.7344 0 -13.672 -5.293 -13.672 -14.102 c0 -8.8867 5.9766 -14.258 13.809 -14.258 c5.0781 0 9.4336 2.2266 11.816 6.4453 l-3.4375 1.8359 c-1.7383 -3.2422 -4.8438 -4.7461 -8.3789 -4.7461 c-5.5859 0 -9.9023 3.7891 -9.9023 10.645 c0 6.7578 4.2188 10.684 10.039 10.684 c4.6875 0 8.3594 -2.6367 9.0039 -7.8711 l-9.0234 0 l0 -3.2422 l12.793 0 l0 14.238 l-3.1641 0 l0 -4.9609 c-1.8164 3.3789 -5.2344 5.332 -9.8828 5.332 z"></path></g>
			</g>
		</svg>
	